{"title":"Avatar (2009) [720p] [BDRip] [XviD-torentup] [AC3] [Lektor PL]","uid":12586281,"size":5315658414,"categoryP":"video","categoryS":"hd___movies","magnet":"?xt=urn:btih:650ff6157ef87b76f641f6c36ceed078494d23ba&amp;dn=Avatar+%282009%29+%5B720p%5D+%5BBDRip%5D+%5BXviD-torentup%5D+%5BAC3%5D+%5BLektor+PL%5D&amp;tr=udp%3A%2F%2Ftracker.leechers-paradise.org%3A6969&amp;tr=udp%3A%2F%2Fzer0day.ch%3A1337&amp;tr=udp%3A%2F%2Fopen.demonii.com%3A1337&amp;tr=udp%3A%2F%2Ftracker.coppersurfer.tk%3A6969&amp;tr=udp%3A%2F%2Fexodus.desync.com%3A6969","seeders":3,"leechers":0,"uploader":"torentup","files":5,"time":1445023577,"description":"Avatar (2009) [720p] [BDRip] [XviD-torentup] [AC3] [Lektor PL]\r\n\r\n...( Info )...\r\n\r\n\r\n*   Oryginalny tytuł: .......... Avatar\r\n*   Polski tytuł: .......... Avatar\r\n*   Produkcja: .......... USA, Wielka Brytania\r\n*   Data premiery: .......... 25 grudnia 2009  (Polska)  10 grudnia 2009  (świat)\r\n*   Gatunek: .......... Sci-Fi\r\n*   Reżyseria: .......... James Cameron\r\n*   Scenariusz: .......... James Cameron\r\n*   Czas trwania: .......... 2 godz. 42 min.\r\n*   Filmweb: .......... 7,4/10  from  596 594 users\r\n*   IMDB: .......... Ratings: 7,9/10 from 816 756 users  \r\n\r\n*   http://www.filmweb.pl/Avatar\r\n*   http://www.imdb.com/title/tt0499549/\r\n*  \n\r\n...( Opis )...\r\n\r\nDługo oczekiwany film Jamesa Camerona zrealizowany z wielkim rozmachem porównywalnym do &quot;Titanica&quot;. Szacowany budżet na poziomie 237 milionów dolarów daje mu trzecie miejsce pod tym względem w historii kina. &quot;Avatar&quot; został wykonany w dwóch technikach: tradycyjnej 2D i zupełnie nowej technice 3D. Zdjęcia do filmu zostały wykonane w 2007 roku, natomiast na postprodukcję przeznaczono dwa lata. &quot;Avatar&quot; opowiada historię sparaliżowanego byłego komandosa, który dostaje szansę odzyskaniaa zdrowego ciała. Musi jednak wziąć udział w specjalnym programie militarnym o nazwie Avatar.\r\n\r\n...( Obsada )...\r\n\r\n*   Sam Worthington ......... Jake Sully\r\n*   Zoe Saldana ......... Neytiri\r\n*   Sigourney Weaver ......... Dr Grace Augustine\r\n*   Stephen Lang ......... Pułkownik Miles Quaritch\r\n*   Michelle Rodriguez ......... Trudy Chacon\r\n*   Giovanni Ribisi ......... Parker Selfridge\r\n*   Joel David Moore ......... Norm Spellman\r\n*   CCH Pounder ......... Moat\r\n\r\n...( Dane Techniczne )...\r\n\r\nFormat                         : AVI\r\nFormat/Info                    : Audio Video Interleave\r\nFormat profile                 : OpenDML\r\nFile size                      : 4.95 GiB\r\nDuration                       : 2h 41mn\r\nOverall bit rate               : 4 383 Kbps\r\nWriting application            : VirtualDubMod 1.5.10.2 (build 2542/release)\r\nWriting library                : VirtualDubMod build 2542/release\r\n\r\nVideo\r\nID                             : 0\r\nFormat                         : MPEG-4 Visual\r\nFormat profile                 : Advanced   \r\nFormat settings, BVOP          : Yes\r\nFormat settings, QPel          : No\r\nFormat settings, GMC           : No warppoints\r\nFormat settings, Matrix        : Custom\r\nCodec ID                       : XVID\r\nCodec ID/Hint                  : XviD\r\nDuration                       : 2h 41mn\r\nBit rate                       : 3 926 Kbps\r\nWidth                          : 1 280 pixels\r\nHeight                         : 720 pixels\r\nDisplay aspect ratio           : 16:9\r\nFrame rate                     : 23.976 fps\r\nColor space                    : YUV\r\nChroma subsampling             : 4:2:0\r\nBit depth                      : 8 bits\r\nScan type                      : Progressive\r\nCompression mode               : Lossy\r\nBits/(Pixel*Frame)             : 0.178\r\nStream size                    : 4.43 GiB (90%)\r\nWriting library                : XviD 64\r\n\r\nAudio\r\nID                             : 1\r\nFormat                         : AC-3\r\nFormat/Info                    : Audio Coding 3\r\nMode extension                 : CM (complete main)\r\nFormat settings, Endianness    : Big\r\nCodec ID                       : 2000\r\nDuration                       : 2h 41mn\r\nBit rate mode                  : Constant\r\nBit rate                       : 448 Kbps\r\nChannel(s)                     : 6 channels\r\nChannel positions              : Front: L C R, Side: L R, LFE\r\nSampling rate                  : 48.0 KHz\r\nBit depth                      : 16 bits\r\nCompression mode               : Lossy\r\nStream size                    : 518 MiB (10%)\r\nAlignment                      : Split accross interleaves\r\nInterleave, duration           : 42 ms (1.00 video frame)\r\nInterleave, preload duration   : 500 ms","torrent":{"xt":"urn:btih:650ff6157ef87b76f641f6c36ceed078494d23ba","amp;dn":"Avatar+%282009%29+%5B720p%5D+%5BBDRip%5D+%5BXviD-torentup%5D+%5BAC3%5D+%5BLektor+PL%5D","amp;tr":["udp%3A%2F%2Ftracker.leechers-paradise.org%3A6969","udp%3A%2F%2Fzer0day.ch%3A1337","udp%3A%2F%2Fopen.demonii.com%3A1337","udp%3A%2F%2Ftracker.coppersurfer.tk%3A6969","udp%3A%2F%2Fexodus.desync.com%3A6969"],"infoHash":"650ff6157ef87b76f641f6c36ceed078494d23ba","infoHashBuffer":{"type":"Buffer","data":[101,15,246,21,126,248,123,118,246,65,246,195,108,238,208,120,73,77,35,186]},"announce":[],"urlList":[]}}